Coordinates
version=1
nRows=17
nColumns=24
inDegrees=yes

Units are S.I. units (second, meters, Newtons, ...)
Angles are in degrees.

endheader
time	pelvis_tilt	pelvis_list	pelvis_rotation	pelvis_tx	pelvis_ty	pelvis_tz	hip_flexion_r	hip_adduction_r	hip_rotation_r	knee_angle_r	ankle_angle_r	subtalar_angle_r	mtp_angle_r	hip_flexion_l	hip_adduction_l	hip_rotation_l	knee_angle_l	ankle_angle_l	subtalar_angle_l	mtp_angle_l	lumbar_extension	lumbar_bending	lumbar_rotation
      3.88000000	    -15.94246223	      1.26008083	      0.36868169	     -0.34381306	     -0.02461909	     -0.01161413	     37.89535338	      0.14110570	     -6.27266125	     -8.01321373	     -9.30190139	      3.18730153	     13.37505023	      0.13986855	      3.62376757	     -5.43925412	    -10.33534903	      1.89648951	     17.72877454	     13.64725966	     13.07613947	     -1.98440203	     -6.21141096
      3.88500000	    -15.93082854	      1.17593491	      0.50974691	     -0.33786779	     -0.02523017	     -0.01148194	     37.82781466	      0.18574494	     -6.41164686	     -8.52609175	     -9.23458046	      3.05617736	     13.22268528	      0.01774016	      3.44566290	     -5.48296319	    -10.77180952	      1.78009828	     18.14359731	     13.95991466	     13.10484514	     -1.84867256	     -6.28823517
      3.89000000	    -15.91959350	      1.10984612	      0.67137574	     -0.33198928	     -0.02578787	     -0.01138241	     37.73564833	      0.20114722	     -6.49785955	     -8.98035751	     -9.26111348	      2.94596553	     13.15800046	     -0.08595943	      3.28782261	     -5.44374216	    -11.22952033	      1.63464835	     18.51677387	     14.20193427	     13.12101359	     -1.73534220	     -6.42445535
      3.89500000	    -15.92650394	      1.00350437	      0.85430177	     -0.32601738	     -0.02627020	     -0.01129687	     37.61454184	      0.24590253	     -6.62040457	     -9.34424396	     -9.40150155	      2.82958984	     13.11867998	     -0.14955746	      3.08025347	     -5.41485871	    -11.72415596	      1.45377467	     18.90638235	     14.42804342	     13.16600190	     -1.58683683	     -6.54083573
      3.90000000	    -15.92545564	      0.82579593	      1.02245451	     -0.31996886	     -0.02668757	     -0.01123448	     37.43014871	      0.36354151	     -6.66067053	     -9.59422958	     -9.66315961	      2.73184102	     13.09921386	     -0.19997859	      2.78309370	     -5.45782734	    -12.25530316	      1.28386490	     19.41163072	     14.78213742	     13.21488375	     -1.35434506	     -6.69985232
      3.90500000	    -15.93218800	      0.62653214	      1.20042217	     -0.31392806	     -0.02700183	     -0.01116204	     37.23244523	      0.50109796	     -6.71286715	     -9.77640970	    -10.07843324	      2.56017211	     13.07141505	     -0.21336949	      2.45703103	     -5.50682758	    -12.82201106	      1.05131498	     19.89135144	     15.13540768	     13.27038023	     -1.10471099	     -6.85034493
      3.91000000	    -15.89570425	      0.41574177	      1.34575606	     -0.30790515	     -0.02717970	     -0.01103601	     36.96635933	      0.67818300	     -6.69388939	     -9.88268265	    -10.63228725	      2.26103815	     13.06534090	     -0.24603253	      2.10122798	     -5.69594249	    -13.41632976	      0.72659192	     20.47538401	     15.65497329	     13.27416407	     -0.83098479	     -6.97156934
      3.91500000	    -15.93764103	      0.14653862	      1.52760446	     -0.30184343	     -0.02731119	     -0.01098404	     36.76895543	      0.87737418	     -6.72557132	     -9.95137676	    -11.29399406	      1.97063770	     12.97050115	     -0.16705545	      1.68901899	     -5.72638327	    -14.05454824	      0.39546948	     20.94518696	     16.02264898	     13.37408642	     -0.50957285	     -7.15771553
      3.92000000	    -15.93495811	     -0.16291340	      1.63310944	     -0.29571377	     -0.02731941	     -0.01085277	     36.50041851	      1.16873395	     -6.62722596	     -9.96433752	    -12.02643964	      1.51075294	     12.80198101	     -0.11685508	      1.21318370	     -5.95937027	    -14.71880391	     -0.02704965	     21.50788187	     16.59363441	     13.43945901	     -0.11374804	     -7.23228864
      3.92500000	    -15.98685209	     -0.47872991	      1.84021801	     -0.28965264	     -0.02725964	     -0.01083616	     36.29846092	      1.39532660	     -6.63550066	    -10.00204223	    -12.74279875	      1.03995735	     12.51589336	      0.05766905	      0.73193094	     -6.05030693	    -15.47959667	     -0.47658370	     22.03520900	     16.97990229	     13.55779153	      0.24948646	     -7.43713025
      3.93000000	    -16.00099384	     -0.82937298	      1.92616903	     -0.28354360	     -0.02711966	     -0.01068084	     36.06009027	      1.73677548	     -6.45423647	    -10.05256895	    -13.46165099	      0.41050212	     12.00950596	      0.19868983	      0.19146212	     -6.34859949	    -16.25232905	     -1.00731351	     22.62605098	     17.56334701	     13.64260907	      0.69284679	     -7.51249123
      3.93500000	    -16.03239939	     -1.17740000	      2.04805426	     -0.27740890	     -0.02690474	     -0.01055441	     35.84255793	      2.05241482	     -6.29356666	    -10.13636655	    -14.09009646	     -0.25147263	     11.32745392	      0.39737629	     -0.35635002	     -6.63427246	    -17.07760301	     -1.63776689	     23.22918674	     18.13261125	     13.75862760	      1.11627147	     -7.61660423
      3.94000000	    -16.06899941	     -1.51564417	      2.17447590	     -0.27122998	     -0.02663262	     -0.01038246	     35.63774523	      2.35993278	     -6.12931230	    -10.26202297	    -14.60877967	     -0.95917145	     10.52260866	      0.63332204	     -0.91202103	     -6.97583319	    -17.94734288	     -2.37406127	     23.87369657	     18.70126409	     13.89372973	      1.51855299	     -7.71369442
      3.94500000	    -16.11108109	     -1.84142393	      2.28555934	     -0.26508211	     -0.02632622	     -0.01021105	     35.45177025	      2.65852752	     -5.94556898	    -10.42154445	    -15.04105834	     -1.64234032	      9.68541327	      0.91138351	     -1.46890208	     -7.34799962	    -18.87055882	     -3.18748443	     24.56674075	     19.28875788	     14.03034025	      1.91863012	     -7.80100771
      3.95000000	    -16.13297651	     -2.17451852	      2.27538975	     -0.25884335	     -0.02598113	     -0.00992284	     35.24850668	      3.03955889	     -5.61734759	    -10.62151003	    -15.29906431	     -2.27536389	      8.47482715	      1.16262879	     -2.05071771	     -7.89123532	    -19.78541329	     -4.17791128	     25.14644056	     20.13768845	     14.16221438	      2.36825527	     -7.74354564
      3.95500000	    -16.17749192	     -2.45775663	      2.35438188	     -0.25276605	     -0.02564666	     -0.00964883	     35.09553823	      3.31234123	     -5.44840059	    -10.86112629	    -15.44079689	     -2.80528576	      7.62455260	      1.52682389	     -2.60686101	     -8.41214933	    -20.83247157	     -5.19297027	     25.86772888	     20.83993516	     14.29627498	      2.72371584	     -7.77639984
      3.96000000	    -16.24889585	     -2.78033041	      2.48201265	     -0.24656725	     -0.02530493	     -0.00951122	     34.95501213	      3.56685421	     -5.53778435	    -11.07219418	    -15.51259746	     -3.10746149	      7.31870477	      1.96793261	     -3.20987538	     -8.86469787	    -21.97396374	     -6.20329173	     26.56242633	     21.21936074	     14.49324966	      3.11086585	     -7.86972239
